<?xml version="1.0" encoding="UTF-8" standalone="no"?>
<!DOCTYPE svg PUBLIC "-//W3C//DTD SVG 1.1//EN"
 "http://www.w3.org/Graphics/SVG/1.1/DTD/svg11.dtd">
<!-- Generated by graphviz version 14.0.5 (20251129.0259)
 -->
<!-- Pages: 1 -->
<svg width="501pt" height="45pt"
 viewBox="0.00 0.00 501.00 45.00" xmlns="http://www.w3.org/2000/svg" xmlns:xlink="http://www.w3.org/1999/xlink">
<g id="graph0" class="graph" transform="scale(1 1) rotate(0) translate(4 41)">
<polygon fill="white" stroke="none" points="-4,4 -4,-41 496.75,-41 496.75,4 -4,4"/>
<!-- 4716096592 -->
<g id="node1" class="node">
<title>4716096592</title>
<polygon fill="none" stroke="black" points="309,-0.5 309,-36.5 492.75,-36.5 492.75,-0.5 309,-0.5"/>
<text xml:space="preserve" text-anchor="middle" x="320.38" y="-13.7" font-family="Times,serif" font-size="14.00">b</text>
<polyline fill="none" stroke="black" points="331.75,-1 331.75,-36.5"/>
<text xml:space="preserve" text-anchor="middle" x="371.62" y="-13.7" font-family="Times,serif" font-size="14.00">data 6.0000</text>
<polyline fill="none" stroke="black" points="411.5,-1 411.5,-36.5"/>
<text xml:space="preserve" text-anchor="middle" x="452.12" y="-13.7" font-family="Times,serif" font-size="14.00">grad 1.0000</text>
</g>
<!-- 4716096592+ -->
<g id="node2" class="node">
<title>4716096592+</title>
<ellipse fill="none" stroke="black" cx="246" cy="-18.5" rx="27" ry="18"/>
<text xml:space="preserve" text-anchor="middle" x="246" y="-13.45" font-family="Times,serif" font-size="14.00">+</text>
</g>
<!-- 4716096592+&#45;&gt;4716096592 -->
<g id="edge1" class="edge">
<title>4716096592+&#45;&gt;4716096592</title>
<path fill="none" stroke="black" d="M273.28,-18.5C280.42,-18.5 288.61,-18.5 297.32,-18.5"/>
<polygon fill="black" stroke="black" points="297.06,-22 307.06,-18.5 297.06,-15 297.06,-22"/>
</g>
<!-- 4716096240 -->
<g id="node3" class="node">
<title>4716096240</title>
<polygon fill="none" stroke="black" points="0,-0.5 0,-36.5 183,-36.5 183,-0.5 0,-0.5"/>
<text xml:space="preserve" text-anchor="middle" x="11" y="-13.7" font-family="Times,serif" font-size="14.00">a</text>
<polyline fill="none" stroke="black" points="22,-1 22,-36.5"/>
<text xml:space="preserve" text-anchor="middle" x="61.88" y="-13.7" font-family="Times,serif" font-size="14.00">data 3.0000</text>
<polyline fill="none" stroke="black" points="101.75,-1 101.75,-36.5"/>
<text xml:space="preserve" text-anchor="middle" x="142.38" y="-13.7" font-family="Times,serif" font-size="14.00">grad 2.0000</text>
</g>
<!-- 4716096240&#45;&gt;4716096592+ -->
<g id="edge2" class="edge">
<title>4716096240&#45;&gt;4716096592+</title>
<path fill="none" stroke="black" d="M183.41,-18.5C191.77,-18.5 199.88,-18.5 207.32,-18.5"/>
<polygon fill="black" stroke="black" points="207.26,-22 217.26,-18.5 207.26,-15 207.26,-22"/>
</g>
</g>
</svg>
