<?xml version="1.0" encoding="UTF-8" standalone="no"?>
<!DOCTYPE svg PUBLIC "-//W3C//DTD SVG 1.1//EN"
 "http://www.w3.org/Graphics/SVG/1.1/DTD/svg11.dtd">
<!-- Generated by graphviz version 14.0.5 (20251129.0259)
 -->
<!-- Pages: 1 -->
<svg width="1147pt" height="156pt"
 viewBox="0.00 0.00 1147.00 156.00" xmlns="http://www.w3.org/2000/svg" xmlns:xlink="http://www.w3.org/1999/xlink">
<g id="graph0" class="graph" transform="scale(1 1) rotate(0) translate(4 152)">
<polygon fill="white" stroke="none" points="-4,4 -4,-152 1142.5,-152 1142.5,4 -4,4"/>
<!-- 4708895776 -->
<g id="node1" class="node">
<title>4708895776</title>
<polygon fill="none" stroke="black" points="2.62,-111.5 2.62,-147.5 185.62,-147.5 185.62,-111.5 2.62,-111.5"/>
<text xml:space="preserve" text-anchor="middle" x="13.62" y="-124.7" font-family="Times,serif" font-size="14.00">a</text>
<polyline fill="none" stroke="black" points="24.62,-112 24.62,-147.5"/>
<text xml:space="preserve" text-anchor="middle" x="64.5" y="-124.7" font-family="Times,serif" font-size="14.00">data 2.0000</text>
<polyline fill="none" stroke="black" points="104.38,-112 104.38,-147.5"/>
<text xml:space="preserve" text-anchor="middle" x="145" y="-124.7" font-family="Times,serif" font-size="14.00">grad 0.0000</text>
</g>
<!-- 4714270656* -->
<g id="node7" class="node">
<title>4714270656*</title>
<ellipse fill="none" stroke="black" cx="251.25" cy="-101.5" rx="27" ry="18"/>
<text xml:space="preserve" text-anchor="middle" x="251.25" y="-96.45" font-family="Times,serif" font-size="14.00">*</text>
</g>
<!-- 4708895776&#45;&gt;4714270656* -->
<g id="edge5" class="edge">
<title>4708895776&#45;&gt;4714270656*</title>
<path fill="none" stroke="black" d="M185.81,-113.13C195.66,-111.35 205.21,-109.63 213.82,-108.08"/>
<polygon fill="black" stroke="black" points="214.19,-111.57 223.41,-106.34 212.95,-104.68 214.19,-111.57"/>
</g>
<!-- 4713608400 -->
<g id="node2" class="node">
<title>4713608400</title>
<polygon fill="none" stroke="black" points="314.25,-28.5 314.25,-64.5 508.5,-64.5 508.5,-28.5 314.25,-28.5"/>
<text xml:space="preserve" text-anchor="middle" x="325.25" y="-41.7" font-family="Times,serif" font-size="14.00">c</text>
<polyline fill="none" stroke="black" points="336.25,-29 336.25,-64.5"/>
<text xml:space="preserve" text-anchor="middle" x="379.5" y="-41.7" font-family="Times,serif" font-size="14.00">data 10.0000</text>
<polyline fill="none" stroke="black" points="422.75,-29 422.75,-64.5"/>
<text xml:space="preserve" text-anchor="middle" x="465.62" y="-41.7" font-family="Times,serif" font-size="14.00">grad &#45;2.0000</text>
</g>
<!-- 4714270960+ -->
<g id="node4" class="node">
<title>4714270960+</title>
<ellipse fill="none" stroke="black" cx="571.5" cy="-73.5" rx="27" ry="18"/>
<text xml:space="preserve" text-anchor="middle" x="571.5" y="-68.45" font-family="Times,serif" font-size="14.00">+</text>
</g>
<!-- 4713608400&#45;&gt;4714270960+ -->
<g id="edge6" class="edge">
<title>4713608400&#45;&gt;4714270960+</title>
<path fill="none" stroke="black" d="M508.91,-62.98C517.6,-64.47 526,-65.9 533.65,-67.21"/>
<polygon fill="black" stroke="black" points="533.05,-70.66 543.5,-68.89 534.23,-63.76 533.05,-70.66"/>
</g>
<!-- 4714270960 -->
<g id="node3" class="node">
<title>4714270960</title>
<polygon fill="none" stroke="black" points="634.5,-55.5 634.5,-91.5 822.75,-91.5 822.75,-55.5 634.5,-55.5"/>
<text xml:space="preserve" text-anchor="middle" x="645.88" y="-68.7" font-family="Times,serif" font-size="14.00">d</text>
<polyline fill="none" stroke="black" points="657.25,-56 657.25,-91.5"/>
<text xml:space="preserve" text-anchor="middle" x="697.12" y="-68.7" font-family="Times,serif" font-size="14.00">data 4.0000</text>
<polyline fill="none" stroke="black" points="737,-56 737,-91.5"/>
<text xml:space="preserve" text-anchor="middle" x="779.88" y="-68.7" font-family="Times,serif" font-size="14.00">grad &#45;2.0000</text>
</g>
<!-- 4705304048* -->
<g id="node10" class="node">
<title>4705304048*</title>
<ellipse fill="none" stroke="black" cx="885.75" cy="-45.5" rx="27" ry="18"/>
<text xml:space="preserve" text-anchor="middle" x="885.75" y="-40.45" font-family="Times,serif" font-size="14.00">*</text>
</g>
<!-- 4714270960&#45;&gt;4705304048* -->
<g id="edge9" class="edge">
<title>4714270960&#45;&gt;4705304048*</title>
<path fill="none" stroke="black" d="M822.99,-56.65C831.86,-55.05 840.43,-53.5 848.23,-52.09"/>
<polygon fill="black" stroke="black" points="848.7,-55.56 857.92,-50.34 847.45,-48.68 848.7,-55.56"/>
</g>
<!-- 4714270960+&#45;&gt;4714270960 -->
<g id="edge1" class="edge">
<title>4714270960+&#45;&gt;4714270960</title>
<path fill="none" stroke="black" d="M598.81,-73.5C605.99,-73.5 614.22,-73.5 622.97,-73.5"/>
<polygon fill="black" stroke="black" points="622.79,-77 632.79,-73.5 622.79,-70 622.79,-77"/>
</g>
<!-- 4705200912 -->
<g id="node5" class="node">
<title>4705200912</title>
<polygon fill="none" stroke="black" points="635.62,-0.5 635.62,-36.5 821.62,-36.5 821.62,-0.5 635.62,-0.5"/>
<text xml:space="preserve" text-anchor="middle" x="645.88" y="-13.7" font-family="Times,serif" font-size="14.00">f</text>
<polyline fill="none" stroke="black" points="656.12,-1 656.12,-36.5"/>
<text xml:space="preserve" text-anchor="middle" x="698.25" y="-13.7" font-family="Times,serif" font-size="14.00">data &#45;2.0000</text>
<polyline fill="none" stroke="black" points="740.38,-1 740.38,-36.5"/>
<text xml:space="preserve" text-anchor="middle" x="781" y="-13.7" font-family="Times,serif" font-size="14.00">grad 4.0000</text>
</g>
<!-- 4705200912&#45;&gt;4705304048* -->
<g id="edge8" class="edge">
<title>4705200912&#45;&gt;4705304048*</title>
<path fill="none" stroke="black" d="M822.1,-34.6C831.26,-36.19 840.12,-37.73 848.17,-39.13"/>
<polygon fill="black" stroke="black" points="847.35,-42.54 857.8,-40.81 848.55,-35.65 847.35,-42.54"/>
</g>
<!-- 4714270656 -->
<g id="node6" class="node">
<title>4714270656</title>
<polygon fill="none" stroke="black" points="315.38,-83.5 315.38,-119.5 507.38,-119.5 507.38,-83.5 315.38,-83.5"/>
<text xml:space="preserve" text-anchor="middle" x="326.38" y="-96.7" font-family="Times,serif" font-size="14.00">e</text>
<polyline fill="none" stroke="black" points="337.38,-84 337.38,-119.5"/>
<text xml:space="preserve" text-anchor="middle" x="379.5" y="-96.7" font-family="Times,serif" font-size="14.00">data &#45;6.0000</text>
<polyline fill="none" stroke="black" points="421.62,-84 421.62,-119.5"/>
<text xml:space="preserve" text-anchor="middle" x="464.5" y="-96.7" font-family="Times,serif" font-size="14.00">grad &#45;2.0000</text>
</g>
<!-- 4714270656&#45;&gt;4714270960+ -->
<g id="edge4" class="edge">
<title>4714270656&#45;&gt;4714270960+</title>
<path fill="none" stroke="black" d="M507.55,-84.65C516.78,-83.01 525.7,-81.43 533.79,-80"/>
<polygon fill="black" stroke="black" points="534.24,-83.47 543.48,-78.28 533.02,-76.58 534.24,-83.47"/>
</g>
<!-- 4714270656*&#45;&gt;4714270656 -->
<g id="edge2" class="edge">
<title>4714270656*&#45;&gt;4714270656</title>
<path fill="none" stroke="black" d="M278.72,-101.5C286.09,-101.5 294.59,-101.5 303.63,-101.5"/>
<polygon fill="black" stroke="black" points="303.39,-105 313.39,-101.5 303.39,-98 303.39,-105"/>
</g>
<!-- 4713607120 -->
<g id="node8" class="node">
<title>4713607120</title>
<polygon fill="none" stroke="black" points="0,-56.5 0,-92.5 188.25,-92.5 188.25,-56.5 0,-56.5"/>
<text xml:space="preserve" text-anchor="middle" x="11.38" y="-69.7" font-family="Times,serif" font-size="14.00">b</text>
<polyline fill="none" stroke="black" points="22.75,-57 22.75,-92.5"/>
<text xml:space="preserve" text-anchor="middle" x="64.88" y="-69.7" font-family="Times,serif" font-size="14.00">data &#45;3.0000</text>
<polyline fill="none" stroke="black" points="107,-57 107,-92.5"/>
<text xml:space="preserve" text-anchor="middle" x="147.62" y="-69.7" font-family="Times,serif" font-size="14.00">grad 0.0000</text>
</g>
<!-- 4713607120&#45;&gt;4714270656* -->
<g id="edge7" class="edge">
<title>4713607120&#45;&gt;4714270656*</title>
<path fill="none" stroke="black" d="M188.49,-90.75C197.27,-92.28 205.77,-93.76 213.51,-95.1"/>
<polygon fill="black" stroke="black" points="212.66,-98.51 223.11,-96.78 213.86,-91.61 212.66,-98.51"/>
</g>
<!-- 4705304048 -->
<g id="node9" class="node">
<title>4705304048</title>
<polygon fill="none" stroke="black" points="948.75,-27.5 948.75,-63.5 1138.5,-63.5 1138.5,-27.5 948.75,-27.5"/>
<text xml:space="preserve" text-anchor="middle" x="960.88" y="-40.7" font-family="Times,serif" font-size="14.00">L</text>
<polyline fill="none" stroke="black" points="973,-28 973,-63.5"/>
<text xml:space="preserve" text-anchor="middle" x="1015.12" y="-40.7" font-family="Times,serif" font-size="14.00">data &#45;8.0000</text>
<polyline fill="none" stroke="black" points="1057.25,-28 1057.25,-63.5"/>
<text xml:space="preserve" text-anchor="middle" x="1097.88" y="-40.7" font-family="Times,serif" font-size="14.00">grad 1.0000</text>
</g>
<!-- 4705304048*&#45;&gt;4705304048 -->
<g id="edge3" class="edge">
<title>4705304048*&#45;&gt;4705304048</title>
<path fill="none" stroke="black" d="M913.19,-45.5C920.34,-45.5 928.53,-45.5 937.24,-45.5"/>
<polygon fill="black" stroke="black" points="937.01,-49 947.01,-45.5 937.01,-42 937.01,-49"/>
</g>
</g>
</svg>
