<?xml version="1.0" encoding="UTF-8" standalone="no"?>
<!DOCTYPE svg PUBLIC "-//W3C//DTD SVG 1.1//EN"
 "http://www.w3.org/Graphics/SVG/1.1/DTD/svg11.dtd">
<!-- Generated by graphviz version 14.0.5 (20251129.0259)
 -->
<!-- Pages: 1 -->
<svg width="578pt" height="128pt"
 viewBox="0.00 0.00 578.00 128.00" xmlns="http://www.w3.org/2000/svg" xmlns:xlink="http://www.w3.org/1999/xlink">
<g id="graph0" class="graph" transform="scale(1 1) rotate(0) translate(4 124)">
<polygon fill="white" stroke="none" points="-4,4 -4,-124 574,-124 574,4 -4,4"/>
<!-- 4698586624 -->
<g id="node1" class="node">
<title>4698586624</title>
<polygon fill="none" stroke="black" points="2.62,-83.5 2.62,-119.5 104.38,-119.5 104.38,-83.5 2.62,-83.5"/>
<text xml:space="preserve" text-anchor="middle" x="13.62" y="-96.7" font-family="Times,serif" font-size="14.00">a</text>
<polyline fill="none" stroke="black" points="24.62,-84 24.62,-119.5"/>
<text xml:space="preserve" text-anchor="middle" x="64.5" y="-96.7" font-family="Times,serif" font-size="14.00">data 2.0000</text>
</g>
<!-- 4714267920* -->
<g id="node6" class="node">
<title>4714267920*</title>
<ellipse fill="none" stroke="black" cx="170" cy="-73.5" rx="27" ry="18"/>
<text xml:space="preserve" text-anchor="middle" x="170" y="-68.45" font-family="Times,serif" font-size="14.00">*</text>
</g>
<!-- 4698586624&#45;&gt;4714267920* -->
<g id="edge3" class="edge">
<title>4698586624&#45;&gt;4714267920*</title>
<path fill="none" stroke="black" d="M104.72,-89.22C114.35,-86.86 124.26,-84.44 133.32,-82.23"/>
<polygon fill="black" stroke="black" points="133.9,-85.69 142.78,-79.91 132.24,-78.89 133.9,-85.69"/>
</g>
<!-- 4714268224 -->
<g id="node2" class="node">
<title>4714268224</title>
<polygon fill="none" stroke="black" points="467.5,-27.5 467.5,-63.5 570,-63.5 570,-27.5 467.5,-27.5"/>
<text xml:space="preserve" text-anchor="middle" x="478.88" y="-40.7" font-family="Times,serif" font-size="14.00">d</text>
<polyline fill="none" stroke="black" points="490.25,-28 490.25,-63.5"/>
<text xml:space="preserve" text-anchor="middle" x="530.12" y="-40.7" font-family="Times,serif" font-size="14.00">data 4.0000</text>
</g>
<!-- 4714268224+ -->
<g id="node3" class="node">
<title>4714268224+</title>
<ellipse fill="none" stroke="black" cx="404.5" cy="-45.5" rx="27" ry="18"/>
<text xml:space="preserve" text-anchor="middle" x="404.5" y="-40.45" font-family="Times,serif" font-size="14.00">+</text>
</g>
<!-- 4714268224+&#45;&gt;4714268224 -->
<g id="edge1" class="edge">
<title>4714268224+&#45;&gt;4714268224</title>
<path fill="none" stroke="black" d="M431.82,-45.5C439.21,-45.5 447.57,-45.5 456.1,-45.5"/>
<polygon fill="black" stroke="black" points="455.83,-49 465.83,-45.5 455.83,-42 455.83,-49"/>
</g>
<!-- 4713609360 -->
<g id="node4" class="node">
<title>4713609360</title>
<polygon fill="none" stroke="black" points="0,-28.5 0,-64.5 107,-64.5 107,-28.5 0,-28.5"/>
<text xml:space="preserve" text-anchor="middle" x="11.38" y="-41.7" font-family="Times,serif" font-size="14.00">b</text>
<polyline fill="none" stroke="black" points="22.75,-29 22.75,-64.5"/>
<text xml:space="preserve" text-anchor="middle" x="64.88" y="-41.7" font-family="Times,serif" font-size="14.00">data &#45;3.0000</text>
</g>
<!-- 4713609360&#45;&gt;4714267920* -->
<g id="edge4" class="edge">
<title>4713609360&#45;&gt;4714267920*</title>
<path fill="none" stroke="black" d="M107.39,-58.97C116.08,-61.02 124.89,-63.1 133.04,-65.02"/>
<polygon fill="black" stroke="black" points="132.01,-68.37 142.55,-67.26 133.62,-61.56 132.01,-68.37"/>
</g>
<!-- 4714267920 -->
<g id="node5" class="node">
<title>4714267920</title>
<polygon fill="none" stroke="black" points="234.12,-55.5 234.12,-91.5 340.38,-91.5 340.38,-55.5 234.12,-55.5"/>
<text xml:space="preserve" text-anchor="middle" x="245.12" y="-68.7" font-family="Times,serif" font-size="14.00">e</text>
<polyline fill="none" stroke="black" points="256.12,-56 256.12,-91.5"/>
<text xml:space="preserve" text-anchor="middle" x="298.25" y="-68.7" font-family="Times,serif" font-size="14.00">data &#45;6.0000</text>
</g>
<!-- 4714267920&#45;&gt;4714268224+ -->
<g id="edge6" class="edge">
<title>4714267920&#45;&gt;4714268224+</title>
<path fill="none" stroke="black" d="M340.82,-60.73C349.88,-58.53 359.11,-56.29 367.6,-54.22"/>
<polygon fill="black" stroke="black" points="368.27,-57.66 377.16,-51.9 366.62,-50.86 368.27,-57.66"/>
</g>
<!-- 4714267920*&#45;&gt;4714267920 -->
<g id="edge2" class="edge">
<title>4714267920*&#45;&gt;4714267920</title>
<path fill="none" stroke="black" d="M197.44,-73.5C205.1,-73.5 213.82,-73.5 222.73,-73.5"/>
<polygon fill="black" stroke="black" points="222.53,-77 232.53,-73.5 222.53,-70 222.53,-77"/>
</g>
<!-- 4713607440 -->
<g id="node7" class="node">
<title>4713607440</title>
<polygon fill="none" stroke="black" points="233,-0.5 233,-36.5 341.5,-36.5 341.5,-0.5 233,-0.5"/>
<text xml:space="preserve" text-anchor="middle" x="244" y="-13.7" font-family="Times,serif" font-size="14.00">c</text>
<polyline fill="none" stroke="black" points="255,-1 255,-36.5"/>
<text xml:space="preserve" text-anchor="middle" x="298.25" y="-13.7" font-family="Times,serif" font-size="14.00">data 10.0000</text>
</g>
<!-- 4713607440&#45;&gt;4714268224+ -->
<g id="edge5" class="edge">
<title>4713607440&#45;&gt;4714268224+</title>
<path fill="none" stroke="black" d="M341.83,-31.05C350.54,-33.09 359.37,-35.16 367.53,-37.07"/>
<polygon fill="black" stroke="black" points="366.52,-40.43 377.05,-39.3 368.11,-33.61 366.52,-40.43"/>
</g>
</g>
</svg>
