<?xml version="1.0" encoding="UTF-8" standalone="no"?>
<!DOCTYPE svg PUBLIC "-//W3C//DTD SVG 1.1//EN"
 "http://www.w3.org/Graphics/SVG/1.1/DTD/svg11.dtd">
<!-- Generated by graphviz version 14.0.5 (20251129.0259)
 -->
<!-- Pages: 1 -->
<svg width="1140pt" height="156pt"
 viewBox="0.00 0.00 1140.00 156.00" xmlns="http://www.w3.org/2000/svg" xmlns:xlink="http://www.w3.org/1999/xlink">
<g id="graph0" class="graph" transform="scale(1 1) rotate(0) translate(4 152)">
<polygon fill="white" stroke="none" points="-4,4 -4,-152 1135.75,-152 1135.75,4 -4,4"/>
<!-- 4708895776 -->
<g id="node1" class="node">
<title>4708895776</title>
<polygon fill="none" stroke="black" points="2.62,-111.5 2.62,-147.5 185.62,-147.5 185.62,-111.5 2.62,-111.5"/>
<text xml:space="preserve" text-anchor="middle" x="13.62" y="-124.7" font-family="Times,serif" font-size="14.00">a</text>
<polyline fill="none" stroke="black" points="24.62,-112 24.62,-147.5"/>
<text xml:space="preserve" text-anchor="middle" x="64.5" y="-124.7" font-family="Times,serif" font-size="14.00">data 2.0000</text>
<polyline fill="none" stroke="black" points="104.38,-112 104.38,-147.5"/>
<text xml:space="preserve" text-anchor="middle" x="145" y="-124.7" font-family="Times,serif" font-size="14.00">grad 0.0000</text>
</g>
<!-- 4714270656* -->
<g id="node7" class="node">
<title>4714270656*</title>
<ellipse fill="none" stroke="black" cx="251.25" cy="-101.5" rx="27" ry="18"/>
<text xml:space="preserve" text-anchor="middle" x="251.25" y="-96.45" font-family="Times,serif" font-size="14.00">*</text>
</g>
<!-- 4708895776&#45;&gt;4714270656* -->
<g id="edge5" class="edge">
<title>4708895776&#45;&gt;4714270656*</title>
<path fill="none" stroke="black" d="M185.81,-113.13C195.66,-111.35 205.21,-109.63 213.82,-108.08"/>
<polygon fill="black" stroke="black" points="214.19,-111.57 223.41,-106.34 212.95,-104.68 214.19,-111.57"/>
</g>
<!-- 4713608400 -->
<g id="node2" class="node">
<title>4713608400</title>
<polygon fill="none" stroke="black" points="314.25,-28.5 314.25,-64.5 504,-64.5 504,-28.5 314.25,-28.5"/>
<text xml:space="preserve" text-anchor="middle" x="325.25" y="-41.7" font-family="Times,serif" font-size="14.00">c</text>
<polyline fill="none" stroke="black" points="336.25,-29 336.25,-64.5"/>
<text xml:space="preserve" text-anchor="middle" x="379.5" y="-41.7" font-family="Times,serif" font-size="14.00">data 10.0000</text>
<polyline fill="none" stroke="black" points="422.75,-29 422.75,-64.5"/>
<text xml:space="preserve" text-anchor="middle" x="463.38" y="-41.7" font-family="Times,serif" font-size="14.00">grad 0.0000</text>
</g>
<!-- 4714270960+ -->
<g id="node4" class="node">
<title>4714270960+</title>
<ellipse fill="none" stroke="black" cx="567" cy="-73.5" rx="27" ry="18"/>
<text xml:space="preserve" text-anchor="middle" x="567" y="-68.45" font-family="Times,serif" font-size="14.00">+</text>
</g>
<!-- 4713608400&#45;&gt;4714270960+ -->
<g id="edge6" class="edge">
<title>4713608400&#45;&gt;4714270960+</title>
<path fill="none" stroke="black" d="M504.39,-62.83C513.16,-64.35 521.65,-65.82 529.37,-67.15"/>
<polygon fill="black" stroke="black" points="528.5,-70.56 538.95,-68.81 529.69,-63.66 528.5,-70.56"/>
</g>
<!-- 4714270960 -->
<g id="node3" class="node">
<title>4714270960</title>
<polygon fill="none" stroke="black" points="631.12,-55.5 631.12,-91.5 814.88,-91.5 814.88,-55.5 631.12,-55.5"/>
<text xml:space="preserve" text-anchor="middle" x="642.5" y="-68.7" font-family="Times,serif" font-size="14.00">d</text>
<polyline fill="none" stroke="black" points="653.88,-56 653.88,-91.5"/>
<text xml:space="preserve" text-anchor="middle" x="693.75" y="-68.7" font-family="Times,serif" font-size="14.00">data 4.0000</text>
<polyline fill="none" stroke="black" points="733.62,-56 733.62,-91.5"/>
<text xml:space="preserve" text-anchor="middle" x="774.25" y="-68.7" font-family="Times,serif" font-size="14.00">grad 0.0000</text>
</g>
<!-- 4705304048* -->
<g id="node10" class="node">
<title>4705304048*</title>
<ellipse fill="none" stroke="black" cx="879" cy="-45.5" rx="27" ry="18"/>
<text xml:space="preserve" text-anchor="middle" x="879" y="-40.45" font-family="Times,serif" font-size="14.00">*</text>
</g>
<!-- 4714270960&#45;&gt;4705304048* -->
<g id="edge9" class="edge">
<title>4714270960&#45;&gt;4705304048*</title>
<path fill="none" stroke="black" d="M815.36,-56.89C824.5,-55.23 833.36,-53.62 841.4,-52.15"/>
<polygon fill="black" stroke="black" points="841.83,-55.63 851.04,-50.4 840.57,-48.75 841.83,-55.63"/>
</g>
<!-- 4714270960+&#45;&gt;4714270960 -->
<g id="edge1" class="edge">
<title>4714270960+&#45;&gt;4714270960</title>
<path fill="none" stroke="black" d="M594.47,-73.5C601.87,-73.5 610.38,-73.5 619.43,-73.5"/>
<polygon fill="black" stroke="black" points="619.17,-77 629.17,-73.5 619.17,-70 619.17,-77"/>
</g>
<!-- 4705200912 -->
<g id="node5" class="node">
<title>4705200912</title>
<polygon fill="none" stroke="black" points="630,-0.5 630,-36.5 816,-36.5 816,-0.5 630,-0.5"/>
<text xml:space="preserve" text-anchor="middle" x="640.25" y="-13.7" font-family="Times,serif" font-size="14.00">f</text>
<polyline fill="none" stroke="black" points="650.5,-1 650.5,-36.5"/>
<text xml:space="preserve" text-anchor="middle" x="692.62" y="-13.7" font-family="Times,serif" font-size="14.00">data &#45;2.0000</text>
<polyline fill="none" stroke="black" points="734.75,-1 734.75,-36.5"/>
<text xml:space="preserve" text-anchor="middle" x="775.38" y="-13.7" font-family="Times,serif" font-size="14.00">grad 0.0000</text>
</g>
<!-- 4705200912&#45;&gt;4705304048* -->
<g id="edge8" class="edge">
<title>4705200912&#45;&gt;4705304048*</title>
<path fill="none" stroke="black" d="M816.25,-34.67C825.01,-36.21 833.5,-37.7 841.24,-39.05"/>
<polygon fill="black" stroke="black" points="840.39,-42.46 850.84,-40.74 841.6,-35.56 840.39,-42.46"/>
</g>
<!-- 4714270656 -->
<g id="node6" class="node">
<title>4714270656</title>
<polygon fill="none" stroke="black" points="315.38,-83.5 315.38,-119.5 502.88,-119.5 502.88,-83.5 315.38,-83.5"/>
<text xml:space="preserve" text-anchor="middle" x="326.38" y="-96.7" font-family="Times,serif" font-size="14.00">e</text>
<polyline fill="none" stroke="black" points="337.38,-84 337.38,-119.5"/>
<text xml:space="preserve" text-anchor="middle" x="379.5" y="-96.7" font-family="Times,serif" font-size="14.00">data &#45;6.0000</text>
<polyline fill="none" stroke="black" points="421.62,-84 421.62,-119.5"/>
<text xml:space="preserve" text-anchor="middle" x="462.25" y="-96.7" font-family="Times,serif" font-size="14.00">grad 0.0000</text>
</g>
<!-- 4714270656&#45;&gt;4714270960+ -->
<g id="edge4" class="edge">
<title>4714270656&#45;&gt;4714270960+</title>
<path fill="none" stroke="black" d="M503.05,-84.81C512.25,-83.16 521.16,-81.56 529.24,-80.1"/>
<polygon fill="black" stroke="black" points="529.71,-83.58 538.93,-78.36 528.47,-76.69 529.71,-83.58"/>
</g>
<!-- 4714270656*&#45;&gt;4714270656 -->
<g id="edge2" class="edge">
<title>4714270656*&#45;&gt;4714270656</title>
<path fill="none" stroke="black" d="M278.69,-101.5C286.1,-101.5 294.64,-101.5 303.71,-101.5"/>
<polygon fill="black" stroke="black" points="303.51,-105 313.51,-101.5 303.51,-98 303.51,-105"/>
</g>
<!-- 4713607120 -->
<g id="node8" class="node">
<title>4713607120</title>
<polygon fill="none" stroke="black" points="0,-56.5 0,-92.5 188.25,-92.5 188.25,-56.5 0,-56.5"/>
<text xml:space="preserve" text-anchor="middle" x="11.38" y="-69.7" font-family="Times,serif" font-size="14.00">b</text>
<polyline fill="none" stroke="black" points="22.75,-57 22.75,-92.5"/>
<text xml:space="preserve" text-anchor="middle" x="64.88" y="-69.7" font-family="Times,serif" font-size="14.00">data &#45;3.0000</text>
<polyline fill="none" stroke="black" points="107,-57 107,-92.5"/>
<text xml:space="preserve" text-anchor="middle" x="147.62" y="-69.7" font-family="Times,serif" font-size="14.00">grad 0.0000</text>
</g>
<!-- 4713607120&#45;&gt;4714270656* -->
<g id="edge7" class="edge">
<title>4713607120&#45;&gt;4714270656*</title>
<path fill="none" stroke="black" d="M188.49,-90.75C197.27,-92.28 205.77,-93.76 213.51,-95.1"/>
<polygon fill="black" stroke="black" points="212.66,-98.51 223.11,-96.78 213.86,-91.61 212.66,-98.51"/>
</g>
<!-- 4705304048 -->
<g id="node9" class="node">
<title>4705304048</title>
<polygon fill="none" stroke="black" points="942,-27.5 942,-63.5 1131.75,-63.5 1131.75,-27.5 942,-27.5"/>
<text xml:space="preserve" text-anchor="middle" x="954.12" y="-40.7" font-family="Times,serif" font-size="14.00">L</text>
<polyline fill="none" stroke="black" points="966.25,-28 966.25,-63.5"/>
<text xml:space="preserve" text-anchor="middle" x="1008.38" y="-40.7" font-family="Times,serif" font-size="14.00">data &#45;8.0000</text>
<polyline fill="none" stroke="black" points="1050.5,-28 1050.5,-63.5"/>
<text xml:space="preserve" text-anchor="middle" x="1091.12" y="-40.7" font-family="Times,serif" font-size="14.00">grad 0.0000</text>
</g>
<!-- 4705304048*&#45;&gt;4705304048 -->
<g id="edge3" class="edge">
<title>4705304048*&#45;&gt;4705304048</title>
<path fill="none" stroke="black" d="M906.44,-45.5C913.59,-45.5 921.78,-45.5 930.49,-45.5"/>
<polygon fill="black" stroke="black" points="930.26,-49 940.26,-45.5 930.26,-42 930.26,-49"/>
</g>
</g>
</svg>
