<?xml version="1.0" encoding="UTF-8" standalone="no"?>
<!DOCTYPE svg PUBLIC "-//W3C//DTD SVG 1.1//EN"
 "http://www.w3.org/Graphics/SVG/1.1/DTD/svg11.dtd">
<!-- Generated by graphviz version 14.0.5 (20251129.0259)
 -->
<!-- Pages: 1 -->
<svg width="2929pt" height="210pt"
 viewBox="0.00 0.00 2929.00 210.00" xmlns="http://www.w3.org/2000/svg" xmlns:xlink="http://www.w3.org/1999/xlink">
<g id="graph0" class="graph" transform="scale(1 1) rotate(0) translate(4 206)">
<polygon fill="white" stroke="none" points="-4,4 -4,-206 2925.25,-206 2925.25,4 -4,4"/>
<!-- 4717590528 -->
<g id="node1" class="node">
<title>4717590528</title>
<polygon fill="none" stroke="black" points="1065,-54.5 1065,-90.5 1248.75,-90.5 1248.75,-54.5 1065,-54.5"/>
<text xml:space="preserve" text-anchor="middle" x="1076.38" y="-67.7" font-family="Times,serif" font-size="14.00">n</text>
<polyline fill="none" stroke="black" points="1087.75,-55 1087.75,-90.5"/>
<text xml:space="preserve" text-anchor="middle" x="1127.62" y="-67.7" font-family="Times,serif" font-size="14.00">data 0.8814</text>
<polyline fill="none" stroke="black" points="1167.5,-55 1167.5,-90.5"/>
<text xml:space="preserve" text-anchor="middle" x="1208.12" y="-67.7" font-family="Times,serif" font-size="14.00">grad 0.5000</text>
</g>
<!-- 4716541456* -->
<g id="node4" class="node">
<title>4716541456*</title>
<ellipse fill="none" stroke="black" cx="1311.75" cy="-99.5" rx="27" ry="18"/>
<text xml:space="preserve" text-anchor="middle" x="1311.75" y="-94.45" font-family="Times,serif" font-size="14.00">*</text>
</g>
<!-- 4717590528&#45;&gt;4716541456* -->
<g id="edge28" class="edge">
<title>4717590528&#45;&gt;4716541456*</title>
<path fill="none" stroke="black" d="M1249.01,-88.6C1257.84,-90.16 1266.4,-91.67 1274.19,-93.04"/>
<polygon fill="black" stroke="black" points="1273.42,-96.46 1283.88,-94.75 1274.64,-89.57 1273.42,-96.46"/>
</g>
<!-- 4717590528+ -->
<g id="node2" class="node">
<title>4717590528+</title>
<ellipse fill="none" stroke="black" cx="1002" cy="-72.5" rx="27" ry="18"/>
<text xml:space="preserve" text-anchor="middle" x="1002" y="-67.45" font-family="Times,serif" font-size="14.00">+</text>
</g>
<!-- 4717590528+&#45;&gt;4717590528 -->
<g id="edge1" class="edge">
<title>4717590528+&#45;&gt;4717590528</title>
<path fill="none" stroke="black" d="M1029.28,-72.5C1036.42,-72.5 1044.61,-72.5 1053.32,-72.5"/>
<polygon fill="black" stroke="black" points="1053.06,-76 1063.06,-72.5 1053.06,-69 1053.06,-76"/>
</g>
<!-- 4716541456 -->
<g id="node3" class="node">
<title>4716541456</title>
<polygon fill="none" stroke="black" points="1374.75,-81.5 1374.75,-117.5 1555.5,-117.5 1555.5,-81.5 1374.75,-81.5"/>
<text xml:space="preserve" text-anchor="middle" x="1384.62" y="-94.7" font-family="Times,serif" font-size="14.00"> </text>
<polyline fill="none" stroke="black" points="1394.5,-82 1394.5,-117.5"/>
<text xml:space="preserve" text-anchor="middle" x="1434.38" y="-94.7" font-family="Times,serif" font-size="14.00">data 1.7627</text>
<polyline fill="none" stroke="black" points="1474.25,-82 1474.25,-117.5"/>
<text xml:space="preserve" text-anchor="middle" x="1514.88" y="-94.7" font-family="Times,serif" font-size="14.00">grad 0.2500</text>
</g>
<!-- 4716541296exp -->
<g id="node23" class="node">
<title>4716541296exp</title>
<ellipse fill="none" stroke="black" cx="1618.5" cy="-99.5" rx="27" ry="18"/>
<text xml:space="preserve" text-anchor="middle" x="1618.5" y="-94.45" font-family="Times,serif" font-size="14.00">exp</text>
</g>
<!-- 4716541456&#45;&gt;4716541296exp -->
<g id="edge14" class="edge">
<title>4716541456&#45;&gt;4716541296exp</title>
<path fill="none" stroke="black" d="M1555.93,-99.5C1564.27,-99.5 1572.37,-99.5 1579.81,-99.5"/>
<polygon fill="black" stroke="black" points="1579.75,-103 1589.75,-99.5 1579.75,-96 1579.75,-103"/>
</g>
<!-- 4716541456*&#45;&gt;4716541456 -->
<g id="edge2" class="edge">
<title>4716541456*&#45;&gt;4716541456</title>
<path fill="none" stroke="black" d="M1339.12,-99.5C1346.26,-99.5 1354.45,-99.5 1363.14,-99.5"/>
<polygon fill="black" stroke="black" points="1362.86,-103 1372.86,-99.5 1362.86,-96 1362.86,-103"/>
</g>
<!-- 4716962768 -->
<g id="node5" class="node">
<title>4716962768</title>
<polygon fill="none" stroke="black" points="1992.75,-53.5 1992.75,-89.5 2178,-89.5 2178,-53.5 1992.75,-53.5"/>
<text xml:space="preserve" text-anchor="middle" x="2002.62" y="-66.7" font-family="Times,serif" font-size="14.00"> </text>
<polyline fill="none" stroke="black" points="2012.5,-54 2012.5,-89.5"/>
<text xml:space="preserve" text-anchor="middle" x="2052.38" y="-66.7" font-family="Times,serif" font-size="14.00">data 6.8284</text>
<polyline fill="none" stroke="black" points="2092.25,-54 2092.25,-89.5"/>
<text xml:space="preserve" text-anchor="middle" x="2135.12" y="-66.7" font-family="Times,serif" font-size="14.00">grad &#45;0.1036</text>
</g>
<!-- 4716964816**&#45;1 -->
<g id="node11" class="node">
<title>4716964816**&#45;1</title>
<ellipse fill="none" stroke="black" cx="2304.38" cy="-71.5" rx="27.81" ry="18"/>
<text xml:space="preserve" text-anchor="middle" x="2304.38" y="-66.45" font-family="Times,serif" font-size="14.00">**&#45;1</text>
</g>
<!-- 4716962768&#45;&gt;4716964816**&#45;1 -->
<g id="edge17" class="edge">
<title>4716962768&#45;&gt;4716964816**&#45;1</title>
<path fill="none" stroke="black" d="M2178.4,-71.5C2208.64,-71.5 2240.63,-71.5 2264.67,-71.5"/>
<polygon fill="black" stroke="black" points="2264.62,-75 2274.62,-71.5 2264.62,-68 2264.62,-75"/>
</g>
<!-- 4716962768+ -->
<g id="node6" class="node">
<title>4716962768+</title>
<ellipse fill="none" stroke="black" cx="1929.75" cy="-71.5" rx="27" ry="18"/>
<text xml:space="preserve" text-anchor="middle" x="1929.75" y="-66.45" font-family="Times,serif" font-size="14.00">+</text>
</g>
<!-- 4716962768+&#45;&gt;4716962768 -->
<g id="edge3" class="edge">
<title>4716962768+&#45;&gt;4716962768</title>
<path fill="none" stroke="black" d="M1957.16,-71.5C1964.2,-71.5 1972.25,-71.5 1980.8,-71.5"/>
<polygon fill="black" stroke="black" points="1980.79,-75 1990.79,-71.5 1980.79,-68 1980.79,-75"/>
</g>
<!-- 4715687488 -->
<g id="node7" class="node">
<title>4715687488</title>
<polygon fill="none" stroke="black" points="3.75,-165.5 3.75,-201.5 194.25,-201.5 194.25,-165.5 3.75,-165.5"/>
<text xml:space="preserve" text-anchor="middle" x="18.5" y="-178.7" font-family="Times,serif" font-size="14.00">x2</text>
<polyline fill="none" stroke="black" points="33.25,-166 33.25,-201.5"/>
<text xml:space="preserve" text-anchor="middle" x="73.12" y="-178.7" font-family="Times,serif" font-size="14.00">data 0.0000</text>
<polyline fill="none" stroke="black" points="113,-166 113,-201.5"/>
<text xml:space="preserve" text-anchor="middle" x="153.62" y="-178.7" font-family="Times,serif" font-size="14.00">grad 0.5000</text>
</g>
<!-- 4714656592* -->
<g id="node21" class="node">
<title>4714656592*</title>
<ellipse fill="none" stroke="black" cx="261" cy="-128.5" rx="27" ry="18"/>
<text xml:space="preserve" text-anchor="middle" x="261" y="-123.45" font-family="Times,serif" font-size="14.00">*</text>
</g>
<!-- 4715687488&#45;&gt;4714656592* -->
<g id="edge27" class="edge">
<title>4715687488&#45;&gt;4714656592*</title>
<path fill="none" stroke="black" d="M172.12,-165.01C180.9,-162.35 189.7,-159.5 198,-156.5 208.09,-152.86 218.82,-148.27 228.47,-143.88"/>
<polygon fill="black" stroke="black" points="229.86,-147.09 237.45,-139.69 226.9,-140.75 229.86,-147.09"/>
</g>
<!-- 4715683408 -->
<g id="node8" class="node">
<title>4715683408</title>
<polygon fill="none" stroke="black" points="0,-55.5 0,-91.5 198,-91.5 198,-55.5 0,-55.5"/>
<text xml:space="preserve" text-anchor="middle" x="16.25" y="-68.7" font-family="Times,serif" font-size="14.00">w1</text>
<polyline fill="none" stroke="black" points="32.5,-56 32.5,-91.5"/>
<text xml:space="preserve" text-anchor="middle" x="74.62" y="-68.7" font-family="Times,serif" font-size="14.00">data &#45;3.0000</text>
<polyline fill="none" stroke="black" points="116.75,-56 116.75,-91.5"/>
<text xml:space="preserve" text-anchor="middle" x="157.38" y="-68.7" font-family="Times,serif" font-size="14.00">grad 1.0000</text>
</g>
<!-- 4717566960* -->
<g id="node28" class="node">
<title>4717566960*</title>
<ellipse fill="none" stroke="black" cx="261" cy="-73.5" rx="27" ry="18"/>
<text xml:space="preserve" text-anchor="middle" x="261" y="-68.45" font-family="Times,serif" font-size="14.00">*</text>
</g>
<!-- 4715683408&#45;&gt;4717566960* -->
<g id="edge11" class="edge">
<title>4715683408&#45;&gt;4717566960*</title>
<path fill="none" stroke="black" d="M198.14,-73.5C206.61,-73.5 214.8,-73.5 222.29,-73.5"/>
<polygon fill="black" stroke="black" points="222.29,-77 232.29,-73.5 222.29,-70 222.29,-77"/>
</g>
<!-- 4716732496 -->
<g id="node9" class="node">
<title>4716732496</title>
<polygon fill="none" stroke="black" points="1.5,-0.5 1.5,-36.5 196.5,-36.5 196.5,-0.5 1.5,-0.5"/>
<text xml:space="preserve" text-anchor="middle" x="16.25" y="-13.7" font-family="Times,serif" font-size="14.00">x1</text>
<polyline fill="none" stroke="black" points="31,-1 31,-36.5"/>
<text xml:space="preserve" text-anchor="middle" x="70.88" y="-13.7" font-family="Times,serif" font-size="14.00">data 2.0000</text>
<polyline fill="none" stroke="black" points="110.75,-1 110.75,-36.5"/>
<text xml:space="preserve" text-anchor="middle" x="153.62" y="-13.7" font-family="Times,serif" font-size="14.00">grad &#45;1.5000</text>
</g>
<!-- 4716732496&#45;&gt;4717566960* -->
<g id="edge18" class="edge">
<title>4716732496&#45;&gt;4717566960*</title>
<path fill="none" stroke="black" d="M172.12,-36.99C180.9,-39.65 189.7,-42.5 198,-45.5 208.09,-49.14 218.82,-53.73 228.47,-58.12"/>
<polygon fill="black" stroke="black" points="226.9,-61.25 237.45,-62.31 229.86,-54.91 226.9,-61.25"/>
</g>
<!-- 4716964816 -->
<g id="node10" class="node">
<title>4716964816</title>
<polygon fill="none" stroke="black" points="2430.75,-57.5 2430.75,-93.5 2611.5,-93.5 2611.5,-57.5 2430.75,-57.5"/>
<text xml:space="preserve" text-anchor="middle" x="2440.62" y="-70.7" font-family="Times,serif" font-size="14.00"> </text>
<polyline fill="none" stroke="black" points="2450.5,-58 2450.5,-93.5"/>
<text xml:space="preserve" text-anchor="middle" x="2490.38" y="-70.7" font-family="Times,serif" font-size="14.00">data 0.1464</text>
<polyline fill="none" stroke="black" points="2530.25,-58 2530.25,-93.5"/>
<text xml:space="preserve" text-anchor="middle" x="2570.88" y="-70.7" font-family="Times,serif" font-size="14.00">grad 4.8284</text>
</g>
<!-- 4716966608* -->
<g id="node14" class="node">
<title>4716966608*</title>
<ellipse fill="none" stroke="black" cx="2674.5" cy="-98.5" rx="27" ry="18"/>
<text xml:space="preserve" text-anchor="middle" x="2674.5" y="-93.45" font-family="Times,serif" font-size="14.00">*</text>
</g>
<!-- 4716964816&#45;&gt;4716966608* -->
<g id="edge21" class="edge">
<title>4716964816&#45;&gt;4716966608*</title>
<path fill="none" stroke="black" d="M2611.93,-89.15C2620.54,-90.45 2628.89,-91.72 2636.53,-92.88"/>
<polygon fill="black" stroke="black" points="2635.96,-96.34 2646.37,-94.38 2637.01,-89.41 2635.96,-96.34"/>
</g>
<!-- 4716964816**&#45;1&#45;&gt;4716964816 -->
<g id="edge4" class="edge">
<title>4716964816**&#45;1&#45;&gt;4716964816</title>
<path fill="none" stroke="black" d="M2332.57,-72.01C2354.68,-72.42 2387.33,-73.03 2419.22,-73.62"/>
<polygon fill="black" stroke="black" points="2418.87,-77.11 2428.93,-73.8 2419,-70.12 2418.87,-77.11"/>
</g>
<!-- 4716964432 -->
<g id="node12" class="node">
<title>4716964432</title>
<polygon fill="none" stroke="black" points="1681.5,-26.5 1681.5,-62.5 1866.75,-62.5 1866.75,-26.5 1681.5,-26.5"/>
<text xml:space="preserve" text-anchor="middle" x="1691.38" y="-39.7" font-family="Times,serif" font-size="14.00"> </text>
<polyline fill="none" stroke="black" points="1701.25,-27 1701.25,-62.5"/>
<text xml:space="preserve" text-anchor="middle" x="1741.12" y="-39.7" font-family="Times,serif" font-size="14.00">data 1.0000</text>
<polyline fill="none" stroke="black" points="1781,-27 1781,-62.5"/>
<text xml:space="preserve" text-anchor="middle" x="1823.88" y="-39.7" font-family="Times,serif" font-size="14.00">grad &#45;0.1036</text>
</g>
<!-- 4716964432&#45;&gt;4716962768+ -->
<g id="edge12" class="edge">
<title>4716964432&#45;&gt;4716962768+</title>
<path fill="none" stroke="black" d="M1867.15,-60.67C1875.89,-62.21 1884.36,-63.7 1892.08,-65.05"/>
<polygon fill="black" stroke="black" points="1891.2,-68.45 1901.66,-66.74 1892.41,-61.56 1891.2,-68.45"/>
</g>
<!-- 4716966608 -->
<g id="node13" class="node">
<title>4716966608</title>
<polygon fill="none" stroke="black" points="2737.5,-80.5 2737.5,-116.5 2921.25,-116.5 2921.25,-80.5 2737.5,-80.5"/>
<text xml:space="preserve" text-anchor="middle" x="2748.88" y="-93.7" font-family="Times,serif" font-size="14.00">o</text>
<polyline fill="none" stroke="black" points="2760.25,-81 2760.25,-116.5"/>
<text xml:space="preserve" text-anchor="middle" x="2800.12" y="-93.7" font-family="Times,serif" font-size="14.00">data 0.7071</text>
<polyline fill="none" stroke="black" points="2840,-81 2840,-116.5"/>
<text xml:space="preserve" text-anchor="middle" x="2880.62" y="-93.7" font-family="Times,serif" font-size="14.00">grad 1.0000</text>
</g>
<!-- 4716966608*&#45;&gt;4716966608 -->
<g id="edge5" class="edge">
<title>4716966608*&#45;&gt;4716966608</title>
<path fill="none" stroke="black" d="M2701.78,-98.5C2708.92,-98.5 2717.11,-98.5 2725.82,-98.5"/>
<polygon fill="black" stroke="black" points="2725.56,-102 2735.56,-98.5 2725.56,-95 2725.56,-102"/>
</g>
<!-- 4716718288 -->
<g id="node15" class="node">
<title>4716718288</title>
<polygon fill="none" stroke="black" points="1681.5,-136.5 1681.5,-172.5 1866.75,-172.5 1866.75,-136.5 1681.5,-136.5"/>
<text xml:space="preserve" text-anchor="middle" x="1691.38" y="-149.7" font-family="Times,serif" font-size="14.00"> </text>
<polyline fill="none" stroke="black" points="1701.25,-137 1701.25,-172.5"/>
<text xml:space="preserve" text-anchor="middle" x="1743.38" y="-149.7" font-family="Times,serif" font-size="14.00">data &#45;1.0000</text>
<polyline fill="none" stroke="black" points="1785.5,-137 1785.5,-172.5"/>
<text xml:space="preserve" text-anchor="middle" x="1826.12" y="-149.7" font-family="Times,serif" font-size="14.00">grad 0.1464</text>
</g>
<!-- 4716965328+ -->
<g id="node26" class="node">
<title>4716965328+</title>
<ellipse fill="none" stroke="black" cx="1929.75" cy="-126.5" rx="27" ry="18"/>
<text xml:space="preserve" text-anchor="middle" x="1929.75" y="-121.45" font-family="Times,serif" font-size="14.00">+</text>
</g>
<!-- 4716718288&#45;&gt;4716965328+ -->
<g id="edge23" class="edge">
<title>4716718288&#45;&gt;4716965328+</title>
<path fill="none" stroke="black" d="M1867.15,-137.73C1875.89,-136.13 1884.36,-134.59 1892.08,-133.18"/>
<polygon fill="black" stroke="black" points="1892.45,-136.67 1901.66,-131.44 1891.19,-129.79 1892.45,-136.67"/>
</g>
<!-- 4715241200 -->
<g id="node16" class="node">
<title>4715241200</title>
<polygon fill="none" stroke="black" points="2.25,-110.5 2.25,-146.5 195.75,-146.5 195.75,-110.5 2.25,-110.5"/>
<text xml:space="preserve" text-anchor="middle" x="18.5" y="-123.7" font-family="Times,serif" font-size="14.00">w2</text>
<polyline fill="none" stroke="black" points="34.75,-111 34.75,-146.5"/>
<text xml:space="preserve" text-anchor="middle" x="74.62" y="-123.7" font-family="Times,serif" font-size="14.00">data 1.0000</text>
<polyline fill="none" stroke="black" points="114.5,-111 114.5,-146.5"/>
<text xml:space="preserve" text-anchor="middle" x="155.12" y="-123.7" font-family="Times,serif" font-size="14.00">grad 0.0000</text>
</g>
<!-- 4715241200&#45;&gt;4714656592* -->
<g id="edge26" class="edge">
<title>4715241200&#45;&gt;4714656592*</title>
<path fill="none" stroke="black" d="M195.84,-128.5C205.14,-128.5 214.15,-128.5 222.32,-128.5"/>
<polygon fill="black" stroke="black" points="222.13,-132 232.13,-128.5 222.13,-125 222.13,-132"/>
</g>
<!-- 4717583136 -->
<g id="node17" class="node">
<title>4717583136</title>
<polygon fill="none" stroke="black" points="1066.5,-109.5 1066.5,-145.5 1247.25,-145.5 1247.25,-109.5 1066.5,-109.5"/>
<text xml:space="preserve" text-anchor="middle" x="1076.38" y="-122.7" font-family="Times,serif" font-size="14.00"> </text>
<polyline fill="none" stroke="black" points="1086.25,-110 1086.25,-145.5"/>
<text xml:space="preserve" text-anchor="middle" x="1126.12" y="-122.7" font-family="Times,serif" font-size="14.00">data 2.0000</text>
<polyline fill="none" stroke="black" points="1166,-110 1166,-145.5"/>
<text xml:space="preserve" text-anchor="middle" x="1206.62" y="-122.7" font-family="Times,serif" font-size="14.00">grad 0.2203</text>
</g>
<!-- 4717583136&#45;&gt;4716541456* -->
<g id="edge16" class="edge">
<title>4717583136&#45;&gt;4716541456*</title>
<path fill="none" stroke="black" d="M1247.69,-111.05C1256.94,-109.35 1265.93,-107.71 1274.08,-106.22"/>
<polygon fill="black" stroke="black" points="1274.67,-109.67 1283.87,-104.42 1273.41,-102.78 1274.67,-109.67"/>
</g>
<!-- 4714658128 -->
<g id="node18" class="node">
<title>4714658128</title>
<polygon fill="none" stroke="black" points="668.25,-82.5 668.25,-118.5 939,-118.5 939,-82.5 668.25,-82.5"/>
<text xml:space="preserve" text-anchor="middle" x="720.88" y="-95.7" font-family="Times,serif" font-size="14.00">x1*w1 + x2*w2</text>
<polyline fill="none" stroke="black" points="773.5,-83 773.5,-118.5"/>
<text xml:space="preserve" text-anchor="middle" x="815.62" y="-95.7" font-family="Times,serif" font-size="14.00">data &#45;6.0000</text>
<polyline fill="none" stroke="black" points="857.75,-83 857.75,-118.5"/>
<text xml:space="preserve" text-anchor="middle" x="898.38" y="-95.7" font-family="Times,serif" font-size="14.00">grad 0.5000</text>
</g>
<!-- 4714658128&#45;&gt;4717590528+ -->
<g id="edge24" class="edge">
<title>4714658128&#45;&gt;4717590528+</title>
<path fill="none" stroke="black" d="M934.24,-82.02C944.99,-80.49 955.18,-79.03 964.21,-77.75"/>
<polygon fill="black" stroke="black" points="964.46,-81.25 973.86,-76.37 963.47,-74.32 964.46,-81.25"/>
</g>
<!-- 4714658128+ -->
<g id="node19" class="node">
<title>4714658128+</title>
<ellipse fill="none" stroke="black" cx="605.25" cy="-100.5" rx="27" ry="18"/>
<text xml:space="preserve" text-anchor="middle" x="605.25" y="-95.45" font-family="Times,serif" font-size="14.00">+</text>
</g>
<!-- 4714658128+&#45;&gt;4714658128 -->
<g id="edge6" class="edge">
<title>4714658128+&#45;&gt;4714658128</title>
<path fill="none" stroke="black" d="M632.73,-100.5C639.73,-100.5 647.79,-100.5 656.52,-100.5"/>
<polygon fill="black" stroke="black" points="656.39,-104 666.39,-100.5 656.39,-97 656.39,-104"/>
</g>
<!-- 4714656592 -->
<g id="node20" class="node">
<title>4714656592</title>
<polygon fill="none" stroke="black" points="326.25,-110.5 326.25,-146.5 540,-146.5 540,-110.5 326.25,-110.5"/>
<text xml:space="preserve" text-anchor="middle" x="352.62" y="-123.7" font-family="Times,serif" font-size="14.00">x2*w2</text>
<polyline fill="none" stroke="black" points="379,-111 379,-146.5"/>
<text xml:space="preserve" text-anchor="middle" x="418.88" y="-123.7" font-family="Times,serif" font-size="14.00">data 0.0000</text>
<polyline fill="none" stroke="black" points="458.75,-111 458.75,-146.5"/>
<text xml:space="preserve" text-anchor="middle" x="499.38" y="-123.7" font-family="Times,serif" font-size="14.00">grad 0.5000</text>
</g>
<!-- 4714656592&#45;&gt;4714658128+ -->
<g id="edge15" class="edge">
<title>4714656592&#45;&gt;4714658128+</title>
<path fill="none" stroke="black" d="M540.42,-111.01C549.89,-109.45 559,-107.95 567.21,-106.6"/>
<polygon fill="black" stroke="black" points="567.75,-110.05 577.05,-104.98 566.62,-103.15 567.75,-110.05"/>
</g>
<!-- 4714656592*&#45;&gt;4714656592 -->
<g id="edge7" class="edge">
<title>4714656592*&#45;&gt;4714656592</title>
<path fill="none" stroke="black" d="M288.21,-128.5C296,-128.5 305.08,-128.5 314.82,-128.5"/>
<polygon fill="black" stroke="black" points="314.55,-132 324.55,-128.5 314.55,-125 314.55,-132"/>
</g>
<!-- 4716541296 -->
<g id="node22" class="node">
<title>4716541296</title>
<polygon fill="none" stroke="black" points="1682.62,-81.5 1682.62,-117.5 1865.62,-117.5 1865.62,-81.5 1682.62,-81.5"/>
<text xml:space="preserve" text-anchor="middle" x="1693.62" y="-94.7" font-family="Times,serif" font-size="14.00">e</text>
<polyline fill="none" stroke="black" points="1704.62,-82 1704.62,-117.5"/>
<text xml:space="preserve" text-anchor="middle" x="1744.5" y="-94.7" font-family="Times,serif" font-size="14.00">data 5.8284</text>
<polyline fill="none" stroke="black" points="1784.38,-82 1784.38,-117.5"/>
<text xml:space="preserve" text-anchor="middle" x="1825" y="-94.7" font-family="Times,serif" font-size="14.00">grad 0.0429</text>
</g>
<!-- 4716541296&#45;&gt;4716962768+ -->
<g id="edge19" class="edge">
<title>4716541296&#45;&gt;4716962768+</title>
<path fill="none" stroke="black" d="M1865.82,-82.97C1875.07,-81.28 1884.05,-79.65 1892.19,-78.16"/>
<polygon fill="black" stroke="black" points="1892.74,-81.62 1901.95,-76.38 1891.48,-74.73 1892.74,-81.62"/>
</g>
<!-- 4716541296&#45;&gt;4716965328+ -->
<g id="edge20" class="edge">
<title>4716541296&#45;&gt;4716965328+</title>
<path fill="none" stroke="black" d="M1865.82,-115.44C1874.99,-117.05 1883.88,-118.61 1891.95,-120.03"/>
<polygon fill="black" stroke="black" points="1891.19,-123.45 1901.64,-121.74 1892.4,-116.56 1891.19,-123.45"/>
</g>
<!-- 4716541296exp&#45;&gt;4716541296 -->
<g id="edge8" class="edge">
<title>4716541296exp&#45;&gt;4716541296</title>
<path fill="none" stroke="black" d="M1645.91,-99.5C1653.35,-99.5 1661.92,-99.5 1671.02,-99.5"/>
<polygon fill="black" stroke="black" points="1670.84,-103 1680.84,-99.5 1670.84,-96 1670.84,-103"/>
</g>
<!-- 4715246576 -->
<g id="node24" class="node">
<title>4715246576</title>
<polygon fill="none" stroke="black" points="711.75,-27.5 711.75,-63.5 895.5,-63.5 895.5,-27.5 711.75,-27.5"/>
<text xml:space="preserve" text-anchor="middle" x="723.12" y="-40.7" font-family="Times,serif" font-size="14.00">b</text>
<polyline fill="none" stroke="black" points="734.5,-28 734.5,-63.5"/>
<text xml:space="preserve" text-anchor="middle" x="774.38" y="-40.7" font-family="Times,serif" font-size="14.00">data 6.8814</text>
<polyline fill="none" stroke="black" points="814.25,-28 814.25,-63.5"/>
<text xml:space="preserve" text-anchor="middle" x="854.88" y="-40.7" font-family="Times,serif" font-size="14.00">grad 0.5000</text>
</g>
<!-- 4715246576&#45;&gt;4717590528+ -->
<g id="edge25" class="edge">
<title>4715246576&#45;&gt;4717590528+</title>
<path fill="none" stroke="black" d="M895.91,-58.05C919.97,-61.36 944.58,-64.74 963.93,-67.4"/>
<polygon fill="black" stroke="black" points="963.36,-70.86 973.75,-68.75 964.32,-63.92 963.36,-70.86"/>
</g>
<!-- 4716965328 -->
<g id="node25" class="node">
<title>4716965328</title>
<polygon fill="none" stroke="black" points="2214,-108.5 2214,-144.5 2394.75,-144.5 2394.75,-108.5 2214,-108.5"/>
<text xml:space="preserve" text-anchor="middle" x="2223.88" y="-121.7" font-family="Times,serif" font-size="14.00"> </text>
<polyline fill="none" stroke="black" points="2233.75,-109 2233.75,-144.5"/>
<text xml:space="preserve" text-anchor="middle" x="2273.62" y="-121.7" font-family="Times,serif" font-size="14.00">data 4.8284</text>
<polyline fill="none" stroke="black" points="2313.5,-109 2313.5,-144.5"/>
<text xml:space="preserve" text-anchor="middle" x="2354.12" y="-121.7" font-family="Times,serif" font-size="14.00">grad 0.1464</text>
</g>
<!-- 4716965328&#45;&gt;4716966608* -->
<g id="edge13" class="edge">
<title>4716965328&#45;&gt;4716966608*</title>
<path fill="none" stroke="black" d="M2395.13,-119.89C2456.15,-115.36 2538.7,-109.17 2611.5,-103.5 2619.38,-102.89 2627.83,-102.21 2635.87,-101.57"/>
<polygon fill="black" stroke="black" points="2636.06,-105.06 2645.75,-100.77 2635.5,-98.09 2636.06,-105.06"/>
</g>
<!-- 4716965328+&#45;&gt;4716965328 -->
<g id="edge9" class="edge">
<title>4716965328+&#45;&gt;4716965328</title>
<path fill="none" stroke="black" d="M1957.25,-126.5C2007.51,-126.5 2119.07,-126.5 2202.03,-126.5"/>
<polygon fill="black" stroke="black" points="2202.02,-130 2212.02,-126.5 2202.02,-123 2202.02,-130"/>
</g>
<!-- 4717566960 -->
<g id="node27" class="node">
<title>4717566960</title>
<polygon fill="none" stroke="black" points="324,-55.5 324,-91.5 542.25,-91.5 542.25,-55.5 324,-55.5"/>
<text xml:space="preserve" text-anchor="middle" x="350.38" y="-68.7" font-family="Times,serif" font-size="14.00">x1*w1</text>
<polyline fill="none" stroke="black" points="376.75,-56 376.75,-91.5"/>
<text xml:space="preserve" text-anchor="middle" x="418.88" y="-68.7" font-family="Times,serif" font-size="14.00">data &#45;6.0000</text>
<polyline fill="none" stroke="black" points="461,-56 461,-91.5"/>
<text xml:space="preserve" text-anchor="middle" x="501.62" y="-68.7" font-family="Times,serif" font-size="14.00">grad 0.5000</text>
</g>
<!-- 4717566960&#45;&gt;4714658128+ -->
<g id="edge22" class="edge">
<title>4717566960&#45;&gt;4714658128+</title>
<path fill="none" stroke="black" d="M542.35,-90.68C551.12,-92.07 559.54,-93.4 567.19,-94.62"/>
<polygon fill="black" stroke="black" points="566.59,-98.07 577.02,-96.18 567.69,-91.15 566.59,-98.07"/>
</g>
<!-- 4717566960*&#45;&gt;4717566960 -->
<g id="edge10" class="edge">
<title>4717566960*&#45;&gt;4717566960</title>
<path fill="none" stroke="black" d="M288.21,-73.5C295.29,-73.5 303.43,-73.5 312.17,-73.5"/>
<polygon fill="black" stroke="black" points="312.01,-77 322.01,-73.5 312.01,-70 312.01,-77"/>
</g>
</g>
</svg>
